<svg xmlns="http://www.w3.org/2000/svg" width="512" height="512" viewBox="0 0 512 512">
  <defs>
    <linearGradient id="g" x1="0" y1="0" x2="1" y2="1">
      <stop offset="0" stop-color="#7c5cff"/>
      <stop offset="1" stop-color="#00d4ff"/>
    </linearGradient>
  </defs>
  <rect width="512" height="512" rx="120" fill="#0b1220"/>
  <rect x="64" y="64" width="384" height="384" rx="110" fill="url(#g)" opacity="0.18"/>
  <path d="M256 98c62 0 112 50 112 112 0 74-86 166-105 186a10 10 0 0 1-14 0c-19-20-105-112-105-186 0-62 50-112 112-112Zm0 62a50 50 0 1 0 0 100 50 50 0 0 0 0-100Z" fill="url(#g)"/>
  <path d="M150 392c26 18 64 28 106 28s80-10 106-28" fill="none" stroke="rgba(255,255,255,0.55)" stroke-width="14" stroke-linecap="round"/>
</svg>
